<svg width="24" height="24" viewBox="0 0 24 24" fill="none" xmlns="http://www.w3.org/2000/svg">
<g clip-path="url(#clip0_2346_653)">
<path fill-rule="evenodd" clip-rule="evenodd" d="M23.5197 12.2724C23.5197 11.4215 23.4434 10.6033 23.3015 9.81787H12V14.4596H18.458C18.1799 15.9595 17.3344 17.2304 16.0635 18.0813V21.0921H19.9416C22.2107 19.0031 23.5197 15.9268 23.5197 12.2724Z" fill="#293FFF"/>
<path fill-rule="evenodd" clip-rule="evenodd" d="M12.0007 23.9991C15.2407 23.9991 17.957 22.9246 19.9424 21.0919L16.0643 18.081C14.9898 18.801 13.6152 19.2265 12.0007 19.2265C8.87533 19.2265 6.22994 17.1156 5.28633 14.2793H1.27734V17.3883C3.25183 21.3101 7.30992 23.9991 12.0007 23.9991Z" fill="#2FA012"/>
<path fill-rule="evenodd" clip-rule="evenodd" d="M5.28532 14.2797C5.04533 13.5598 4.90897 12.7907 4.90897 11.9998C4.90897 11.2089 5.04533 10.4398 5.28532 9.71985V6.61084H1.27633C0.463625 8.2308 0 10.0635 0 11.9998C0 13.9361 0.463625 15.7688 1.27633 17.3888L5.28532 14.2797Z" fill="#F9B60B"/>
<path fill-rule="evenodd" clip-rule="evenodd" d="M12.0007 4.77261C13.7625 4.77261 15.3443 5.37805 16.5879 6.56711L20.0296 3.12538C17.9515 1.18906 15.2352 0 12.0007 0C7.30992 0 3.25183 2.68902 1.27734 6.61075L5.28633 9.71976C6.22994 6.88347 8.87533 4.77261 12.0007 4.77261Z" fill="#CF0C0C"/>
</g>
<defs>
<clipPath id="clip0_2346_653">
<rect width="24" height="24" fill="white"/>
</clipPath>
</defs>
</svg>
